<svg xmlns:xlink="http://www.w3.org/1999/xlink" width="100" height="100" fill="none" viewBox="0 0 32 32" x="192" xmlns="http://www.w3.org/2000/svg"><g clip-path="url(#aeclip0_35749_113868)" fill-rule="evenodd" clip-rule="evenodd" fill="none"><path d="M26.672 10.84c1.18-1.735 3.33-.558 3.33 1.296v7.624a2.682 2.682 0 01-.789 1.758L22.34 28.36a2.21 2.21 0 01-1.99.608s-20.326-4.286-9.85-6.92C20.976 19.415 26.672 10.84 26.672 10.84z" fill="#767676"></path><path d="M26.672 10.84c1.18-1.735 3.33-.558 3.33 1.296v7.624a2.682 2.682 0 01-.789 1.758L22.34 28.36a2.21 2.21 0 01-1.99.608s-20.326-4.286-9.85-6.92C20.976 19.415 26.672 10.84 26.672 10.84z" fill="url(&quot;#aepaint0_linear_35749_113868&quot;)"></path><path d="M26.672 10.84c1.18-1.735 3.33-.558 3.33 1.296v7.624a2.682 2.682 0 01-.789 1.758L22.34 28.36a2.21 2.21 0 01-1.99.608s-20.326-4.286-9.85-6.92C20.976 19.415 26.672 10.84 26.672 10.84z" fill="url(&quot;#aepaint1_linear_35749_113868&quot;)"></path><path d="M23.966 26.77l.007.007 4.694-4.686c-1.384 1.389-5 1.417-8.358-.242-2.239-1.107-3.787-3.238-5.16-5.388L7.575 4.488 2.673 9.525a2.523 2.523 0 00-.713 1.64l.027 9.688a2.423 2.423 0 00.645 1.755l6.23 6.68a2.227 2.227 0 001.63.712h9.313c.574 0 1.129-.25 1.549-.66l2.612-2.57z" fill="#4F1A1A"></path><path d="M23.966 26.77l.007.007 4.694-4.686c-1.384 1.389-5 1.417-8.358-.242-2.239-1.107-3.787-3.238-5.16-5.388L7.575 4.488 2.673 9.525a2.523 2.523 0 00-.713 1.64l.027 9.688a2.423 2.423 0 00.645 1.755l6.23 6.68a2.227 2.227 0 001.63.712h9.313c.574 0 1.129-.25 1.549-.66l2.612-2.57z" fill="url(&quot;#aepaint2_linear_35749_113868&quot;)"></path><path d="M23.966 26.77l.007.007 4.694-4.686c-1.384 1.389-5 1.417-8.358-.242-2.239-1.107-3.787-3.238-5.16-5.388L7.575 4.488 2.673 9.525a2.523 2.523 0 00-.713 1.64l.027 9.688a2.423 2.423 0 00.645 1.755l6.23 6.68a2.227 2.227 0 001.63.712h9.313c.574 0 1.129-.25 1.549-.66l2.612-2.57z" fill="url(&quot;#aepaint3_linear_35749_113868&quot;)"></path><path d="M23.966 26.77l.007.007 4.694-4.686c-1.384 1.389-5 1.417-8.358-.242-2.239-1.107-3.787-3.238-5.16-5.388L7.575 4.488 2.673 9.525a2.523 2.523 0 00-.713 1.64l.027 9.688a2.423 2.423 0 00.645 1.755l6.23 6.68a2.227 2.227 0 001.63.712h9.313c.574 0 1.129-.25 1.549-.66l2.612-2.57z" fill="url(&quot;#aepaint4_linear_35749_113868&quot;)"></path><path d="M6.347 20.098c2.024-3.906 2.672-2.87 10.09-8.692 3.44-2.702 5.438-5.884 6.41-7.773a1.118 1.118 0 00-1.002-1.647H10.937c-.597 0-1.17.245-1.595.682L2.634 9.563a2.418 2.418 0 00-.676 1.685v9.663c0 .617.231 1.209.644 1.65l5.391 5.774S4.19 24.26 6.347 20.098z" fill="#585858"></path><path d="M6.347 20.098c2.024-3.906 2.672-2.87 10.09-8.692 3.44-2.702 5.438-5.884 6.41-7.773a1.118 1.118 0 00-1.002-1.647H10.937c-.597 0-1.17.245-1.595.682L2.634 9.563a2.418 2.418 0 00-.676 1.685v9.663c0 .617.231 1.209.644 1.65l5.391 5.774S4.19 24.26 6.347 20.098z" fill="url(&quot;#aepaint5_linear_35749_113868&quot;)"></path><path d="M6.347 20.098c2.024-3.906 2.672-2.87 10.09-8.692 3.44-2.702 5.438-5.884 6.41-7.773a1.118 1.118 0 00-1.002-1.647H10.937c-.597 0-1.17.245-1.595.682L2.634 9.563a2.418 2.418 0 00-.676 1.685v9.663c0 .617.231 1.209.644 1.65l5.391 5.774S4.19 24.26 6.347 20.098z" fill="url(&quot;#aepaint6_linear_35749_113868&quot;)"></path><path d="M6.347 20.098c2.024-3.906 2.672-2.87 10.09-8.692 3.44-2.702 5.438-5.884 6.41-7.773a1.118 1.118 0 00-1.002-1.647H10.937c-.597 0-1.17.245-1.595.682L2.634 9.563a2.418 2.418 0 00-.676 1.685v9.663c0 .617.231 1.209.644 1.65l5.391 5.774S4.19 24.26 6.347 20.098z" fill="url(&quot;#aepaint7_linear_35749_113868&quot;)"></path></g><defs><linearGradient id="aepaint0_linear_35749_113868" x1="23.834" y1="21.868" x2="32.089" y2="12.902" gradientUnits="userSpaceOnUse"><stop stop-color="#114A85"></stop><stop offset=".796" stop-color="#028EDB"></stop></linearGradient><linearGradient id="aepaint1_linear_35749_113868" x1="24.131" y1="24.327" x2="35.21" y2="6.295" gradientUnits="userSpaceOnUse"><stop stop-color="#114A85"></stop><stop offset=".67" stop-color="#028EDB"></stop></linearGradient><linearGradient id="aepaint2_linear_35749_113868" x1="7.499" y1="20.804" x2="22.201" y2="20.91" gradientUnits="userSpaceOnUse"><stop offset=".074" stop-color="#0669B6"></stop><stop offset=".262" stop-color="#0E7FCB"></stop><stop offset=".545" stop-color="#148DD9"></stop><stop offset=".95" stop-color="#3CC5EE"></stop></linearGradient><linearGradient id="aepaint3_linear_35749_113868" x1="7.331" y1="26.216" x2="24.102" y2="23.793" gradientUnits="userSpaceOnUse"><stop offset=".31" stop-color="#0094E5"></stop><stop offset="1" stop-color="#40D8F9"></stop></linearGradient><linearGradient id="aepaint4_linear_35749_113868" x1="5.725" y1="17.42" x2="21.98" y2="22.26" gradientUnits="userSpaceOnUse"><stop offset=".09" stop-opacity=".2"></stop><stop offset=".55" stop-opacity="0"></stop></linearGradient><linearGradient id="aepaint5_linear_35749_113868" x1="17.942" y1="4.74" x2="3.637" y2="14.369" gradientUnits="userSpaceOnUse"><stop stop-color="#BDF5FF"></stop><stop offset="1" stop-color="#40D9FA"></stop></linearGradient><linearGradient id="aepaint6_linear_35749_113868" x1="2.441" y1="22.688" x2="17.223" y2="12.861" gradientUnits="userSpaceOnUse"><stop stop-color="#3CC5EE"></stop><stop offset="1" stop-color="#50E0FF"></stop></linearGradient><linearGradient id="aepaint7_linear_35749_113868" x1="6.737" y1="15.498" x2="12.291" y2="18.323" gradientUnits="userSpaceOnUse"><stop stop-color="#A1ECFF" stop-opacity="0"></stop><stop offset=".9" stop-color="#A1ECFF" stop-opacity=".9"></stop></linearGradient><clipPath id="aeclip0_35749_113868"><path fill="#fff" d="M0 0h32v32H0z"></path></clipPath><linearGradient id="aepaint0_linear_35749_113868" x1="23.834" y1="21.868" x2="32.089" y2="12.902" gradientUnits="userSpaceOnUse"><stop stop-color="#114A85"></stop><stop offset=".796" stop-color="#028EDB"></stop></linearGradient><linearGradient id="aepaint1_linear_35749_113868" x1="24.131" y1="24.327" x2="35.21" y2="6.295" gradientUnits="userSpaceOnUse"><stop stop-color="#114A85"></stop><stop offset=".67" stop-color="#028EDB"></stop></linearGradient><linearGradient id="aepaint2_linear_35749_113868" x1="7.499" y1="20.804" x2="22.201" y2="20.91" gradientUnits="userSpaceOnUse"><stop offset=".074" stop-color="#0669B6"></stop><stop offset=".262" stop-color="#0E7FCB"></stop><stop offset=".545" stop-color="#148DD9"></stop><stop offset=".95" stop-color="#3CC5EE"></stop></linearGradient><linearGradient id="aepaint3_linear_35749_113868" x1="7.331" y1="26.216" x2="24.102" y2="23.793" gradientUnits="userSpaceOnUse"><stop offset=".31" stop-color="#0094E5"></stop><stop offset="1" stop-color="#40D8F9"></stop></linearGradient><linearGradient id="aepaint4_linear_35749_113868" x1="5.725" y1="17.42" x2="21.98" y2="22.26" gradientUnits="userSpaceOnUse"><stop offset=".09" stop-opacity=".2"></stop><stop offset=".55" stop-opacity="0"></stop></linearGradient><linearGradient id="aepaint5_linear_35749_113868" x1="17.942" y1="4.74" x2="3.637" y2="14.369" gradientUnits="userSpaceOnUse"><stop stop-color="#BDF5FF"></stop><stop offset="1" stop-color="#40D9FA"></stop></linearGradient><linearGradient id="aepaint6_linear_35749_113868" x1="2.441" y1="22.688" x2="17.223" y2="12.861" gradientUnits="userSpaceOnUse"><stop stop-color="#3CC5EE"></stop><stop offset="1" stop-color="#50E0FF"></stop></linearGradient><linearGradient id="aepaint7_linear_35749_113868" x1="6.737" y1="15.498" x2="12.291" y2="18.323" gradientUnits="userSpaceOnUse"><stop stop-color="#A1ECFF" stop-opacity="0"></stop><stop offset=".9" stop-color="#A1ECFF" stop-opacity=".9"></stop></linearGradient><linearGradient id="aepaint0_linear_35749_113868" x1="23.834" y1="21.868" x2="32.089" y2="12.902" gradientUnits="userSpaceOnUse"><stop stop-color="#114A85"></stop><stop offset=".796" stop-color="#028EDB"></stop></linearGradient><linearGradient id="aepaint1_linear_35749_113868" x1="24.131" y1="24.327" x2="35.21" y2="6.295" gradientUnits="userSpaceOnUse"><stop stop-color="#114A85"></stop><stop offset=".67" stop-color="#028EDB"></stop></linearGradient><linearGradient id="aepaint2_linear_35749_113868" x1="7.499" y1="20.804" x2="22.201" y2="20.91" gradientUnits="userSpaceOnUse"><stop offset=".074" stop-color="#0669B6"></stop><stop offset=".262" stop-color="#0E7FCB"></stop><stop offset=".545" stop-color="#148DD9"></stop><stop offset=".95" stop-color="#3CC5EE"></stop></linearGradient><linearGradient id="aepaint3_linear_35749_113868" x1="7.331" y1="26.216" x2="24.102" y2="23.793" gradientUnits="userSpaceOnUse"><stop offset=".31" stop-color="#0094E5"></stop><stop offset="1" stop-color="#40D8F9"></stop></linearGradient><linearGradient id="aepaint4_linear_35749_113868" x1="5.725" y1="17.42" x2="21.98" y2="22.26" gradientUnits="userSpaceOnUse"><stop offset=".09" stop-opacity=".2"></stop><stop offset=".55" stop-opacity="0"></stop></linearGradient><linearGradient id="aepaint5_linear_35749_113868" x1="17.942" y1="4.74" x2="3.637" y2="14.369" gradientUnits="userSpaceOnUse"><stop stop-color="#BDF5FF"></stop><stop offset="1" stop-color="#40D9FA"></stop></linearGradient><linearGradient id="aepaint6_linear_35749_113868" x1="2.441" y1="22.688" x2="17.223" y2="12.861" gradientUnits="userSpaceOnUse"><stop stop-color="#3CC5EE"></stop><stop offset="1" stop-color="#50E0FF"></stop></linearGradient><linearGradient id="aepaint7_linear_35749_113868" x1="6.737" y1="15.498" x2="12.291" y2="18.323" gradientUnits="userSpaceOnUse"><stop stop-color="#A1ECFF" stop-opacity="0"></stop><stop offset=".9" stop-color="#A1ECFF" stop-opacity=".9"></stop></linearGradient><linearGradient id="aepaint0_linear_35749_113868" x1="23.834" y1="21.868" x2="32.089" y2="12.902" gradientUnits="userSpaceOnUse"><stop stop-color="#114A85"></stop><stop offset=".796" stop-color="#028EDB"></stop></linearGradient><linearGradient id="aepaint1_linear_35749_113868" x1="24.131" y1="24.327" x2="35.21" y2="6.295" gradientUnits="userSpaceOnUse"><stop stop-color="#114A85"></stop><stop offset=".67" stop-color="#028EDB"></stop></linearGradient><linearGradient id="aepaint2_linear_35749_113868" x1="7.499" y1="20.804" x2="22.201" y2="20.91" gradientUnits="userSpaceOnUse"><stop offset=".074" stop-color="#0669B6"></stop><stop offset=".262" stop-color="#0E7FCB"></stop><stop offset=".545" stop-color="#148DD9"></stop><stop offset=".95" stop-color="#3CC5EE"></stop></linearGradient><linearGradient id="aepaint3_linear_35749_113868" x1="7.331" y1="26.216" x2="24.102" y2="23.793" gradientUnits="userSpaceOnUse"><stop offset=".31" stop-color="#0094E5"></stop><stop offset="1" stop-color="#40D8F9"></stop></linearGradient><linearGradient id="aepaint4_linear_35749_113868" x1="5.725" y1="17.42" x2="21.98" y2="22.26" gradientUnits="userSpaceOnUse"><stop offset=".09" stop-opacity=".2"></stop><stop offset=".55" stop-opacity="0"></stop></linearGradient><linearGradient id="aepaint5_linear_35749_113868" x1="17.942" y1="4.74" x2="3.637" y2="14.369" gradientUnits="userSpaceOnUse"><stop stop-color="#BDF5FF"></stop><stop offset="1" stop-color="#40D9FA"></stop></linearGradient><linearGradient id="aepaint6_linear_35749_113868" x1="2.441" y1="22.688" x2="17.223" y2="12.861" gradientUnits="userSpaceOnUse"><stop stop-color="#3CC5EE"></stop><stop offset="1" stop-color="#50E0FF"></stop></linearGradient><linearGradient id="aepaint7_linear_35749_113868" x1="6.737" y1="15.498" x2="12.291" y2="18.323" gradientUnits="userSpaceOnUse"><stop stop-color="#A1ECFF" stop-opacity="0"></stop><stop offset=".9" stop-color="#A1ECFF" stop-opacity=".9"></stop></linearGradient><linearGradient id="aepaint0_linear_35749_113868" x1="23.834" y1="21.868" x2="32.089" y2="12.902" gradientUnits="userSpaceOnUse"><stop stop-color="#114A85"></stop><stop offset=".796" stop-color="#028EDB"></stop></linearGradient><linearGradient id="aepaint1_linear_35749_113868" x1="24.131" y1="24.327" x2="35.21" y2="6.295" gradientUnits="userSpaceOnUse"><stop stop-color="#114A85"></stop><stop offset=".67" stop-color="#028EDB"></stop></linearGradient><linearGradient id="aepaint2_linear_35749_113868" x1="7.499" y1="20.804" x2="22.201" y2="20.91" gradientUnits="userSpaceOnUse"><stop offset=".074" stop-color="#0669B6"></stop><stop offset=".262" stop-color="#0E7FCB"></stop><stop offset=".545" stop-color="#148DD9"></stop><stop offset=".95" stop-color="#3CC5EE"></stop></linearGradient><linearGradient id="aepaint3_linear_35749_113868" x1="7.331" y1="26.216" x2="24.102" y2="23.793" gradientUnits="userSpaceOnUse"><stop offset=".31" stop-color="#0094E5"></stop><stop offset="1" stop-color="#40D8F9"></stop></linearGradient><linearGradient id="aepaint4_linear_35749_113868" x1="5.725" y1="17.42" x2="21.98" y2="22.26" gradientUnits="userSpaceOnUse"><stop offset=".09" stop-opacity=".2"></stop><stop offset=".55" stop-opacity="0"></stop></linearGradient><linearGradient id="aepaint5_linear_35749_113868" x1="17.942" y1="4.74" x2="3.637" y2="14.369" gradientUnits="userSpaceOnUse"><stop stop-color="#BDF5FF"></stop><stop offset="1" stop-color="#40D9FA"></stop></linearGradient><linearGradient id="aepaint6_linear_35749_113868" x1="2.441" y1="22.688" x2="17.223" y2="12.861" gradientUnits="userSpaceOnUse"><stop stop-color="#3CC5EE"></stop><stop offset="1" stop-color="#50E0FF"></stop></linearGradient><linearGradient id="aepaint7_linear_35749_113868" x1="6.737" y1="15.498" x2="12.291" y2="18.323" gradientUnits="userSpaceOnUse"><stop stop-color="#A1ECFF" stop-opacity="0"></stop><stop offset=".9" stop-color="#A1ECFF" stop-opacity=".9"></stop></linearGradient></defs></svg>