<svg xmlns:xlink="http://www.w3.org/1999/xlink" width="100" height="100" fill="none" viewBox="0 0 20 20" x="157" y="144" xmlns="http://www.w3.org/2000/svg"><path d="M10.356 17.93a.994.994 0 01-.908-.1c-.46-.304-.723-1-.416-1.46l3.89-5.786 3.575 4.01a.665.665 0 01-.056.94.622.622 0 01-.188.12l-5.897 2.276z" fill="url(&quot;#ahpaint0_linear_35749_113351&quot;)"></path><path d="M7.221 11.004L3.435 5.307a.644.644 0 01-.1-.348c0-.368.3-.668.667-.668.092 0 .216-.016.296.016l6.158 2.895-.352.7-2.883 3.102z" fill="url(&quot;#ahpaint1_linear_35749_113351&quot;)"></path><path d="M9.644 17.933a1.003 1.003 0 01-.476-1.487L16.565 5.31a.665.665 0 00-.312-.964l-5.897-2.274A.97.97 0 0010 2.004c-.124 0-.244.024-.356.064L3.746 4.343a.68.68 0 01.516 0l4.654 2.243c.34.176.58.504.58.908a.98.98 0 01-.248.655l-5.741 6.446a.665.665 0 00.056.94c.056.051.12.091.187.12l5.898 2.274" fill="url(&quot;#ahpaint2_linear_35749_113351&quot;)"></path><path d="M4.274 4.343l4.654 2.243c.276.14.48.384.552.684l7.185-2.411a.663.663 0 00-.396-.516l-5.897-2.275A.971.971 0 0010.016 2c-.124 0-.244.024-.356.064L3.763 4.339a.68.68 0 01.516 0l-.005.004z" fill="url(&quot;#ahpaint3_linear_35749_113351&quot;)"></path><defs><linearGradient id="ahpaint0_linear_35749_113351" x1="10.128" y1="13.327" x2="14.586" y2="17.07" gradientUnits="userSpaceOnUse"><stop stop-color="#292941"></stop><stop offset=".22" stop-color="#114A85"></stop><stop offset=".44" stop-color="#0A5BA0"></stop><stop offset=".65" stop-color="#0669B6"></stop></linearGradient><linearGradient id="ahpaint1_linear_35749_113351" x1="4.918" y1="3.507" x2="9.196" y2="9.621" gradientUnits="userSpaceOnUse"><stop offset=".22" stop-color="#114A85"></stop><stop offset=".85" stop-color="#0669B6"></stop></linearGradient><linearGradient id="ahpaint2_linear_35749_113351" x1="10" y1="17.933" x2="10" y2="2.004" gradientUnits="userSpaceOnUse"><stop offset=".1" stop-color="#288CD9"></stop><stop offset=".75" stop-color="#3CC5EE"></stop></linearGradient><linearGradient id="ahpaint3_linear_35749_113351" x1="9.54" y1="2.096" x2="10.832" y2="6.906" gradientUnits="userSpaceOnUse"><stop stop-color="#A1ECFF" stop-opacity=".9"></stop><stop offset=".92" stop-color="#A1ECFF" stop-opacity="0"></stop></linearGradient><linearGradient id="ahpaint0_linear_35749_113351" x1="10.128" y1="13.327" x2="14.586" y2="17.07" gradientUnits="userSpaceOnUse"><stop stop-color="#292941"></stop><stop offset=".22" stop-color="#114A85"></stop><stop offset=".44" stop-color="#0A5BA0"></stop><stop offset=".65" stop-color="#0669B6"></stop></linearGradient><linearGradient id="ahpaint1_linear_35749_113351" x1="4.918" y1="3.507" x2="9.196" y2="9.621" gradientUnits="userSpaceOnUse"><stop offset=".22" stop-color="#114A85"></stop><stop offset=".85" stop-color="#0669B6"></stop></linearGradient><linearGradient id="ahpaint2_linear_35749_113351" x1="10" y1="17.933" x2="10" y2="2.004" gradientUnits="userSpaceOnUse"><stop offset=".1" stop-color="#288CD9"></stop><stop offset=".75" stop-color="#3CC5EE"></stop></linearGradient><linearGradient id="ahpaint3_linear_35749_113351" x1="9.54" y1="2.096" x2="10.832" y2="6.906" gradientUnits="userSpaceOnUse"><stop stop-color="#A1ECFF" stop-opacity=".9"></stop><stop offset=".92" stop-color="#A1ECFF" stop-opacity="0"></stop></linearGradient><linearGradient id="ahpaint0_linear_35749_113351" x1="10.128" y1="13.327" x2="14.586" y2="17.07" gradientUnits="userSpaceOnUse"><stop stop-color="#292941"></stop><stop offset=".22" stop-color="#114A85"></stop><stop offset=".44" stop-color="#0A5BA0"></stop><stop offset=".65" stop-color="#0669B6"></stop></linearGradient><linearGradient id="ahpaint1_linear_35749_113351" x1="4.918" y1="3.507" x2="9.196" y2="9.621" gradientUnits="userSpaceOnUse"><stop offset=".22" stop-color="#114A85"></stop><stop offset=".85" stop-color="#0669B6"></stop></linearGradient><linearGradient id="ahpaint2_linear_35749_113351" x1="10" y1="17.933" x2="10" y2="2.004" gradientUnits="userSpaceOnUse"><stop offset=".1" stop-color="#288CD9"></stop><stop offset=".75" stop-color="#3CC5EE"></stop></linearGradient><linearGradient id="ahpaint3_linear_35749_113351" x1="9.54" y1="2.096" x2="10.832" y2="6.906" gradientUnits="userSpaceOnUse"><stop stop-color="#A1ECFF" stop-opacity=".9"></stop><stop offset=".92" stop-color="#A1ECFF" stop-opacity="0"></stop></linearGradient><linearGradient id="ahpaint0_linear_35749_113351" x1="10.128" y1="13.327" x2="14.586" y2="17.07" gradientUnits="userSpaceOnUse"><stop stop-color="#292941"></stop><stop offset=".22" stop-color="#114A85"></stop><stop offset=".44" stop-color="#0A5BA0"></stop><stop offset=".65" stop-color="#0669B6"></stop></linearGradient><linearGradient id="ahpaint1_linear_35749_113351" x1="4.918" y1="3.507" x2="9.196" y2="9.621" gradientUnits="userSpaceOnUse"><stop offset=".22" stop-color="#114A85"></stop><stop offset=".85" stop-color="#0669B6"></stop></linearGradient><linearGradient id="ahpaint2_linear_35749_113351" x1="10" y1="17.933" x2="10" y2="2.004" gradientUnits="userSpaceOnUse"><stop offset=".1" stop-color="#288CD9"></stop><stop offset=".75" stop-color="#3CC5EE"></stop></linearGradient><linearGradient id="ahpaint3_linear_35749_113351" x1="9.54" y1="2.096" x2="10.832" y2="6.906" gradientUnits="userSpaceOnUse"><stop stop-color="#A1ECFF" stop-opacity=".9"></stop><stop offset=".92" stop-color="#A1ECFF" stop-opacity="0"></stop></linearGradient><linearGradient id="ahpaint0_linear_35749_113351" x1="10.128" y1="13.327" x2="14.586" y2="17.07" gradientUnits="userSpaceOnUse"><stop stop-color="#292941"></stop><stop offset=".22" stop-color="#114A85"></stop><stop offset=".44" stop-color="#0A5BA0"></stop><stop offset=".65" stop-color="#0669B6"></stop></linearGradient><linearGradient id="ahpaint1_linear_35749_113351" x1="4.918" y1="3.507" x2="9.196" y2="9.621" gradientUnits="userSpaceOnUse"><stop offset=".22" stop-color="#114A85"></stop><stop offset=".85" stop-color="#0669B6"></stop></linearGradient><linearGradient id="ahpaint2_linear_35749_113351" x1="10" y1="17.933" x2="10" y2="2.004" gradientUnits="userSpaceOnUse"><stop offset=".1" stop-color="#288CD9"></stop><stop offset=".75" stop-color="#3CC5EE"></stop></linearGradient><linearGradient id="ahpaint3_linear_35749_113351" x1="9.54" y1="2.096" x2="10.832" y2="6.906" gradientUnits="userSpaceOnUse"><stop stop-color="#A1ECFF" stop-opacity=".9"></stop><stop offset=".92" stop-color="#A1ECFF" stop-opacity="0"></stop></linearGradient></defs></svg>