<svg xmlns:xlink="http://www.w3.org/1999/xlink" xmlns="http://www.w3.org/2000/svg" _ngcontent-app-id-c119="" class="ng-star-inserted" width="100"  height="100" ><defs><symbol viewBox="0 0 24 24" id="event_stream_24" xmlns="http://www.w3.org/2000/svg"><path d="M2 4.762a1 1 0 102 0v-1a.5.5 0 01.5-.5h15a.5.5 0 01.5.5v1a1 1 0 102 0v-1a2.5 2.5 0 00-2.5-2.5h-15a2.5 2.5 0 00-2.5 2.5v1z"></path><path d="M13.75 5.262a5.25 5.25 0 00-5.25 5.25v.5a.75.75 0 01-.75.75h-1a.75.75 0 100 1.5h1a2.25 2.25 0 002.25-2.25v-.5a3.75 3.75 0 013.75-3.75h1.5a.75.75 0 000-1.5h-1.5z"></path><path d="M11 11.012a3.25 3.25 0 013.25-3.25h2a.75.75 0 010 1.5h-2a1.75 1.75 0 00-1.75 1.75v.418a4.489 4.489 0 00-1.478 3.803 3.235 3.235 0 01-1.772.525h-2.5a.75.75 0 110-1.5h2.5a1.75 1.75 0 001.75-1.75v-.877c0-.02 0-.04.002-.06A.76.76 0 0111 11.51v-.498zM11.308 16.424a3.736 3.736 0 01-1.558.338h-2a.75.75 0 100 1.5h2c.839 0 1.632-.197 2.336-.547a4.496 4.496 0 01-.778-1.29z"></path><path d="M22 18.762a1 1 0 10-2 0v1a.5.5 0 01-.5.5h-15a.5.5 0 01-.5-.5v-1a1 1 0 10-2 0v1a2.5 2.5 0 002.5 2.5h15a2.5 2.5 0 002.5-2.5v-1z"></path><path d="M13.458 11.98a2 2 0 01-1.407 2.437l-.033.01a3.531 3.531 0 00.026.915 2.002 2.002 0 011.302 2.2c.254.2.537.364.842.488a1.999 1.999 0 012.557.026c.289-.11.56-.257.806-.435l-.009-.033a2 2 0 011.407-2.437l.033-.009a3.531 3.531 0 00-.026-.916 2.002 2.002 0 01-1.302-2.2 3.516 3.516 0 00-.841-.488 2 2 0 01-2.558-.026c-.289.11-.56.257-.806.436l.009.032zm2.042 3.554a.75.75 0 110-1.5.75.75 0 010 1.5z"></path></symbol></defs><use _ngcontent-app-id-c119="" xlink:href="#event_stream_24" fill="#242424"></use></svg>