<svg xmlns:xlink="http://www.w3.org/1999/xlink" xmlns="http://www.w3.org/2000/svg" _ngcontent-app-id-c119="" class="ng-star-inserted" width="32"  height="32" ><defs><symbol fill="#666666" viewBox="0 0 24 25" id="square_multiple_overlap_kql_24_regular" xmlns="http://www.w3.org/2000/svg"><mask id="ala" width="24" height="25" x="0" y="0" maskUnits="userSpaceOnUse" style="mask-type:luminance" fill="#666666"><path d="M24 .738H0v24h24v-24z" fill="#666666"></path></mask><g mask="url(#ala)" fill="#666666"><path d="M10.25 2.738A3.25 3.25 0 007 5.988v.25h1.5v-.25c0-.967.784-1.75 1.75-1.75h8.5c.966 0 1.75.783 1.75 1.75v8.206l1.5-.011V5.988a3.25 3.25 0 00-3.25-3.25h-8.5z" fill="#666666"></path><path d="M17 10.988v3.233l-.787.006c-.258.002-.497.05-.713.132v-3.371a1.75 1.75 0 00-1.75-1.75h-8.5a1.75 1.75 0 00-1.75 1.75v8.5c0 .966.784 1.75 1.75 1.75h7.678a2.256 2.256 0 00.702.69c-.205.244-.35.52-.436.81H5.25A3.25 3.25 0 012 19.488v-8.5a3.25 3.25 0 013.25-3.25h8.5a3.25 3.25 0 013.25 3.25z" fill="#666666"></path><path d="M15.5 18.563a.747.747 0 00-.501.219l-.707.707a.75.75 0 001.06 1.06l.708-.707a.75.75 0 00-.56-1.28zm-.143 3.75l-.004.003 1.225-1.226-.002.005.368-.369a.75.75 0 111.061 1.06l-2.121 2.122a.75.75 0 01-1.061-1.06l.534-.535zM17 17.706l-1.125-1.125a.5.5 0 01.35-.854h.002l6.32-.048a.5.5 0 01.505.504l-.05 6.32a.5.5 0 01-.853.35L17 17.703v.003zm2.948 4.964a.75.75 0 010 1.061l-.707.707a.75.75 0 01-1.06-1.06l.707-.707a.75.75 0 011.06 0z" fill="#666666"></path></g></symbol></defs><use _ngcontent-app-id-c119="" xlink:href="#square_multiple_overlap_kql_24_regular"></use></svg>