<svg xmlns:xlink="http://www.w3.org/1999/xlink" xmlns="http://www.w3.org/2000/svg" _ngcontent-app-id-c119="" class="ng-star-inserted" width="100"  height="100" ><defs><symbol fill="#666666" viewBox="0 0 24 24" id="database_kql_24_regular" xmlns="http://www.w3.org/2000/svg"><path d="M4.774 4.22C4.315 4.707 4 5.31 4 6v12c0 .69.315 1.293.774 1.78.455.482 1.079.883 1.793 1.203C7.996 21.623 9.917 22 12 22h.13a2.253 2.253 0 01.284-1.506c-.137.004-.275.006-.414.006-1.921 0-3.625-.35-4.82-.886-.598-.268-1.036-.568-1.315-.864-.275-.29-.365-.543-.365-.75V8.392c.32.22.68.417 1.067.59C7.996 9.623 9.917 10 12 10c2.083 0 4.004-.377 5.433-1.018.386-.173.746-.37 1.067-.59v4.072l1.5-.011V6c0-.69-.315-1.293-.774-1.78-.455-.482-1.079-.883-1.793-1.202C16.004 2.377 14.083 2 12 2c-2.083 0-4.004.377-5.433 1.018-.714.32-1.338.72-1.793 1.202zm1.091 2.53C5.59 6.46 5.5 6.207 5.5 6c0-.207.09-.46.365-.75.279-.296.717-.596 1.315-.864C8.375 3.851 10.08 3.5 12 3.5c1.921 0 3.625.35 4.82.886.598.268 1.036.568 1.315.864.275.29.365.543.365.75 0 .207-.09.46-.365.75-.279.296-.717.596-1.315.864-1.195.535-2.899.886-4.82.886-1.921 0-3.625-.35-4.82-.886-.598-.268-1.036-.568-1.315-.864z" fill="#666666"></path><path d="M15.227 13.99a.5.5 0 00-.35.853l3.53 3.53 1.086 1.087 1.656 1.655a.5.5 0 00.854-.35l.049-6.32a.5.5 0 00-.504-.504l-6.321.048zm-.554 6.27h-.002l-.85.849a.751.751 0 00-.166.81h.002a.75.75 0 001.227.252l2.121-2.122a.75.75 0 00-1.06-1.06l-1.272 1.27zm.387-2.155a.75.75 0 00-1.061-1.061l-.707.707a.75.75 0 001.06 1.06l.708-.706zm3.888 2.828a.75.75 0 010 1.06l-.707.708a.75.75 0 01-1.06-1.06l.707-.708a.75.75 0 011.06 0z" fill="#666666"></path></symbol></defs><use _ngcontent-app-id-c119="" xlink:href="#database_kql_24_regular" fill="#242424"></use></svg>