<svg xmlns:xlink="http://www.w3.org/1999/xlink" xmlns="http://www.w3.org/2000/svg" _ngcontent-app-id-c119="" class="ng-star-inserted" width="100"  height="100" ><defs><symbol viewBox="0 0 24 24" id="lakehouse_24" xmlns="http://www.w3.org/2000/svg"><path d="M10.046 2.534a2.25 2.25 0 012.903-.002l6.76 5.699c.507.427.8 1.057.8 1.72v2.774a2.275 2.275 0 00-1.5-1.165V9.95a.75.75 0 00-.267-.573l-6.76-5.7a.75.75 0 00-.968.001l-6.74 5.698a.75.75 0 00-.265.573v8.8c0 .138.112.25.25.25H9.4a.924.924 0 01-.142 0 2.25 2.25 0 00-2.121 1.5h-2.88a1.75 1.75 0 01-1.75-1.75v-8.8c0-.662.292-1.29.798-1.718l6.74-5.698zM15.608 19h-.187.187z"></path><path d="M17.252 14.55c.1-.134.185-.269.257-.396v.002a3.972 3.972 0 00.279-.613l.003-.011a.75.75 0 011.441.02l.003.009.017.054c.018.05.046.128.088.224a3.3 3.3 0 00.416.698c.385.49.996.963 2.003.963a.75.75 0 010 1.5c-1.574 0-2.587-.777-3.183-1.537a4.354 4.354 0 01-.068-.089 4.59 4.59 0 01-.055.076c-.474.63-1.238 1.32-2.358 1.503a3.629 3.629 0 01-1.192-.003c-1.109-.188-1.867-.873-2.338-1.5a4.072 4.072 0 01-.056-.076c-.022.03-.044.06-.068.089-.595.76-1.609 1.537-3.182 1.537a.75.75 0 010-1.5c1.006 0 1.618-.473 2.002-.963a3.3 3.3 0 00.522-.976l.002-.009a.75.75 0 011.441-.02l.004.011.02.058c.02.053.05.133.095.232.043.096.098.206.164.323v-.002c.071.127.157.262.257.396.337.45.802.84 1.452.93a2.11 2.11 0 00.624-.006c.628-.101 1.08-.484 1.41-.924zM17.252 19.55c.1-.134.185-.269.257-.396v.002a3.972 3.972 0 00.279-.613l.003-.011a.75.75 0 011.441.02l.003.009.017.054c.018.05.046.128.088.224a3.3 3.3 0 00.416.698c.385.49.996.963 2.003.963a.75.75 0 010 1.5c-1.574 0-2.587-.777-3.183-1.537a4.354 4.354 0 01-.068-.089 4.59 4.59 0 01-.055.076c-.474.63-1.238 1.32-2.358 1.503a3.629 3.629 0 01-1.192-.003c-1.109-.188-1.867-.873-2.338-1.5a4.072 4.072 0 01-.056-.076c-.022.03-.044.06-.068.089-.595.76-1.609 1.537-3.182 1.537a.75.75 0 010-1.5c1.006 0 1.618-.473 2.002-.963a3.3 3.3 0 00.522-.976l.002-.009a.75.75 0 011.441-.02l.004.011.02.058c.02.053.05.133.095.232.043.096.098.206.164.323v-.002c.071.127.157.262.257.396.337.45.802.84 1.452.93a2.11 2.11 0 00.624-.006c.628-.101 1.08-.484 1.41-.924z"></path></symbol></defs><use _ngcontent-app-id-c119="" xlink:href="#lakehouse_24" fill="#242424"></use></svg>