<svg xmlns:xlink="http://www.w3.org/1999/xlink" xmlns="http://www.w3.org/2000/svg" _ngcontent-app-id-c119="" class="ng-star-inserted" width="100"  height="100" ><defs><symbol viewBox="0 0 24 24" id="pipeline_24_regular" xmlns="http://www.w3.org/2000/svg"><path d="M2 6.25A2.25 2.25 0 016.49 6H17.5a2.25 2.25 0 014.49.25v10.5a2.25 2.25 0 01-4.49.25h-11a2.25 2.25 0 01-4.5-.25V6.25zm3 0a.75.75 0 00-1.5 0v10.5a.75.75 0 001.5 0V6.25zm1.5 9.25h11v-8h-11v8zm14-9.25a.75.75 0 00-1.5 0v10.5a.75.75 0 001.5 0V6.25z"></path></symbol></defs><use _ngcontent-app-id-c119="" xlink:href="#pipeline_24_regular" fill="#242424"></use></svg>