<svg xmlns:xlink="http://www.w3.org/1999/xlink" xmlns="http://www.w3.org/2000/svg" _ngcontent-app-id-c119="" class="ng-star-inserted" width="100"  height="100" ><defs><symbol viewBox="0 0 24 24" id="spark_job_definition_24" xmlns="http://www.w3.org/2000/svg"><path d="M13.252 10.75a.75.75 0 00-1.5 0v2l-1.601-.924a.75.75 0 00-.75 1.3l1.6.923-1.778 1.027a.75.75 0 10.75 1.3l1.778-1.028v1.902a.75.75 0 001.5 0v-1.902l1.78 1.027a.75.75 0 00.75-1.299L14 14.05l1.6-.924a.75.75 0 10-.75-1.299l-1.6.924v-2z"></path><path d="M3.502 6.25A3.25 3.25 0 016.752 3h11.5a3.25 3.25 0 013.25 3.25v11.5a3.25 3.25 0 01-3.25 3.25h-11.5a3.25 3.25 0 01-3.25-3.25V6.25zm1.5.75h15v-.75a1.75 1.75 0 00-1.75-1.75h-11.5a1.75 1.75 0 00-1.75 1.75V7zm15 1.5h-15v9.25c0 .966.783 1.75 1.75 1.75h11.5a1.75 1.75 0 001.75-1.75V8.5z"></path></symbol></defs><use _ngcontent-app-id-c119="" xlink:href="#spark_job_definition_24" fill="#242424"></use></svg>