<svg xmlns:xlink="http://www.w3.org/1999/xlink" xmlns="http://www.w3.org/2000/svg" _ngcontent-app-id-c119="" class="ng-star-inserted" width="100"  height="100" ><defs><symbol viewBox="0 0 24 24" id="data_warehouse_24_regular" xmlns="http://www.w3.org/2000/svg"><path d="M7.75 10.5a1.25 1.25 0 110 2.5 1.25 1.25 0 010-2.5zm4.25 0a1.25 1.25 0 110 2.5 1.25 1.25 0 010-2.5zm5.5 1.25a1.25 1.25 0 10-2.5 0 1.25 1.25 0 002.5 0zm-8.5 4a1.25 1.25 0 10-2.5 0 1.25 1.25 0 002.5 0zm4.25 0a1.25 1.25 0 10-2.5 0 1.25 1.25 0 002.5 0zm3-1.25a1.25 1.25 0 110 2.5 1.25 1.25 0 010-2.5zM10.537 2.534a2.25 2.25 0 012.903-.002l6.76 5.7c.507.427.8 1.056.8 1.72v9.298A1.75 1.75 0 0119.25 21H4.75A1.75 1.75 0 013 19.25v-9.3c0-.662.292-1.29.797-1.718l6.74-5.698zm1.936 1.145a.75.75 0 00-.968 0l-6.74 5.698a.75.75 0 00-.265.573v9.3c0 .138.112.25.25.25h14.5a.25.25 0 00.25-.25V9.951a.75.75 0 00-.267-.573l-6.76-5.7z"></path></symbol></defs><use _ngcontent-app-id-c119="" xlink:href="#data_warehouse_24_regular" fill="#242424"></use></svg>